<?xml version="1.0" encoding="utf-8"?>
<svg id="master-artboard" viewBox="0 0 380 380" xmlns="http://www.w3.org/2000/svg" width="380px" height="380px" version="1.1" style="shape-rendering:geometricPrecision; text-rendering:geometricPrecision; image-rendering:optimizeQuality; fill-rule:evenodd; clip-rule:evenodd"><g transform="matrix(0.33293697237968445, 0, 0, 0.33293697237968445, -14.477628707885742, -22.705352783203125)"><g transform="matrix(1.2541108131408691, 0, 0, 1.2541108131408691, -298.5213623046875, -690)">

		<defs><style id="ee-google-fonts">@import url(https://fonts.googleapis.com/css?family=Gruppo:400|Russo+One:400);</style></defs>

		<g transform="matrix(1.8688753843307495, 0, 0, 1.8688753843307495, 129.24051122683204, -29.78004896695893)">

			<rect id="ee-background" x="0" y="0" width="380" height="380" style="fill: #4285f4; fill-opacity: 0; pointer-events: none;"/>

			<g transform="matrix(4.506256103515625, 0, 0, 4.506256103515625, -1332.8888997496042, -466.584716796875)">
				<g id="g-1" transform="matrix(1, 0, 0, 1, 0, 0)">
					<g id="g-2">
						<path class="st0" d="M355.7,185.2c20.2,7.9,30.5,31.1,22.6,51.2c-8,20.1-30.7,29.9-50.8,22c-2.3-0.9-4.4-2.1-6.5-3.4&#10;&#9;&#9;&#9;c11.8,25.2,41.9,36.1,67.1,24.2c11.6-5.4,20.7-15.1,25.4-27c10-25.9-2.9-54.9-28.7-64.9C375.5,183.8,365.4,183,355.7,185.2z" style="fill: #ffffff; stroke: #4285f4; stroke-width: 0.7;"/>
					</g>
				</g>
			</g>

			<g transform="matrix(0.033573646098375313, 4.506150722503662, -4.506150722503662, 0.033573646098375313, 1360.052140289458, -1069.9193115234377)">
				<g id="g-3" transform="matrix(0.9992971420288086, 0.03753415122628211, -0.03753415122628211, 0.9992971420288086, 8.61614478444244, -14.009964771620446)">
					<g id="g-4">
						<path class="st0" d="M355.7,185.2c20.2,7.9,30.5,31.1,22.6,51.2c-8,20.1-30.7,29.9-50.8,22c-2.3-0.9-4.4-2.1-6.5-3.4&#10;&#9;&#9;&#9;c11.8,25.2,41.9,36.1,67.1,24.2c11.6-5.4,20.7-15.1,25.4-27c10-25.9-2.9-54.9-28.7-64.9C375.5,183.8,365.4,183,355.7,185.2z" style="fill: #c5d8f8; stroke: #4285f4; stroke-width: 0.7; stroke-opacity: 1;"/>
					</g>
				</g>
			</g>

			<g transform="matrix(-4.407230854034424, 0.9399476647377015, -0.9399476647377015, -4.407230854034424, 2155.628190094146, 1274.754760742188)">
				<g id="g-5" transform="matrix(1, 0, 0, 1, 0, 0)">
					<g id="g-6">
						<path class="st0" d="M355.7,185.2c20.2,7.9,30.5,31.1,22.6,51.2c-8,20.1-30.7,29.9-50.8,22c-2.3-0.9-4.4-2.1-6.5-3.4&#10;&#9;&#9;&#9;c11.8,25.2,41.9,36.1,67.1,24.2c11.6-5.4,20.7-15.1,25.4-27c10-25.9-2.9-54.9-28.7-64.9C375.5,183.8,365.4,183,355.7,185.2z" style="fill: #4285f4; stroke: #4285f4; stroke-width: 0.7;"/>
					</g>
				</g>
			</g>

		</g>
	</g></g></svg>
