<?xml version="1.0" encoding="utf-8"?>
<svg id="master-artboard" viewBox="0 0 504.8642272949219 504.0498046875" version="1.1" xmlns="http://www.w3.org/2000/svg" x="0px" y="0px" style="enable-background:new 0 0 1400 980;" width="504.8642272949219px" height="504.0498046875px"><rect id="ee-background" x="0" y="0" width="504.8642272949219" height="504.0498046875" style="fill: white; fill-opacity: 0; pointer-events: none;"/><defs><style id="ee-google-fonts">@import url(https://fonts.googleapis.com/css?family=Archivo+Narrow:400,400italic,700,700italic);</style></defs><g transform="matrix(4.90000057220459, 0, 0, 4.90000057220459, -2941.64013671875, -217.64742469787598)"><g id="g-1" transform="matrix(1, 0, 0, 1, 0, 0)">
	<g id="g-2">
		<path class="st0" d="M652,46c27.6,0,50,22.4,50,50s-22.4,50-50,50s-50-22.4-50-50S624.4,46,652,46z" style="fill: rgb(51, 51, 51);"/>
	</g>
</g></g><path d="M 749.4158935546875 441.6789245605469 L 755.9359130859375 432.97894287109375 L 758.285888671875 432.97894287109375 L 753.3358764648438 439.6189270019531 L 758.4559326171875 449.4389343261719 L 756.055908203125 449.4389343261719 L 752.0458984375 441.39892578125 L 749.4158935546875 444.3289489746094 L 749.4158935546875 449.4389343261719 L 747.2958984375 449.4389343261719 L 747.2958984375 432.97894287109375 L 749.4158935546875 432.97894287109375 L 749.4158935546875 441.6789245605469 Z" transform="matrix(18.414493560791016, 0, 0, 18.414493560791016, -13590.1611328125, -7867.4873046875)" style="fill: rgb(255, 255, 255); white-space: pre; color: rgb(255, 255, 255);"/></svg>