<svg viewBox="0 0 2000 1400" xmlns="http://www.w3.org/2000/svg">
<rect x="589" y="561" width="8" height="19" fill="#f7535e" rx="0" transform="matrix(.82147 .63716 -.55502 .78683 376.046 -162.305)"/>
<rect x="824" y="1272" width="9" height="23" fill="#FFAD5A" rx="0" transform="matrix(1.06558 .6527 -.26218 .77786 719.25 -109.564)"/>
<rect x="1648" y="18" width="9" height="25" fill="#7eff87" rx="0" transform="matrix(.9646 .64318 -.4052 .76651 61.474 -1113.44)"/>
<rect x="1070" y="1138" width="13" height="25" fill="#7eff87" rx="0" transform="matrix(.99682 .22776 -.073 .98652 387.029 -400.166)"/>
<rect x="1646" y="257" width="10" height="25" fill="#d3ed90" rx="0" transform="matrix(-.677 .53024 -.80252 -.84857 3078.803 -319.588)"/>
<rect x="1171" y="1069" width="13" height="30" fill="#2a80f0" rx="0" transform="matrix(.55996 .85717 -.83018 .51504 1474.867 -483.616)"/>
<rect x="50" y="913" width="7" height="7" fill="#f7535e" rx="0" transform="matrix(.9475 .42495 -.32134 .9113 490.926 52.936)"/>
<rect x="124" y="192" width="10" height="13" fill="#2a80f0" rx="0" transform="matrix(.01736 1.00492 -.99724 -.12339 320.89 113.79)"/>
<rect x="354" y="514" width="7" height="8" fill="#f7535e" rx="0" transform="matrix(.93603 .20995 -.35926 .98776 200.803 -118.962)"/>
<rect x="1303" y="776" width="13" height="27" fill="#FFAD5A" rx="0" transform="matrix(.91374 .91458 -.5869 .50696 829.226 -408.038)"/>
<rect x="1637" y="1310" width="8" height="8" fill="#f7535e" rx="0" transform="matrix(-.333 1.00613 -.97646 -.05273 3294.318 -469.261)"/>
<rect x="1046" y="777" width="10" height="26" fill="#2a80f0" rx="0" transform="matrix(.48257 .9712 -.84441 .37281 1076.904 -223.885)"/>
<rect x="505" y="1059" width="13" height="17" fill="#d3ed90" rx="0" transform="matrix(.49701 .8656 -.85664 .5201 1293.992 -2.343)"/>
<rect x="1115" y="70" width="11" height="15" fill="#2a80f0" rx="0" transform="matrix(-.78463 .25298 -.80598 -1.01463 2182.592 215.246)"/>
<rect x="517" y="1263" width="11" height="15" fill="#7eff87" rx="0" transform="matrix(-.8317 .40829 -.5812 -.91704 1833.813 2267.974)"/>
<rect x="1193" y="1358" width="13" height="36" fill="#f7535e" rx="0" transform="matrix(-.98466 -.05332 -.03225 -1.01732 2255.85 3072.944)"/>
<rect x="1642" y="592" width="9" height="10" fill="#FFAD5A" rx="0" transform="matrix(.66452 .57577 -.78778 .82228 942.802 -985.953)"/>
<rect x="901" y="435" width="13" height="38" fill="#7eff87" rx="0" transform="matrix(-.47944 .68408 -.92935 -.75975 1866.972 371.018)"/>
<rect x="996" y="690" width="12" height="24" fill="#7eff87" rx="0" transform="matrix(-.22495 .95469 -.97437 -.3102 1911.409 50.823)"/>
<rect x="1205" y="512" width="10" height="17" fill="#7eff87" rx="0" transform="matrix(-.97434 .19093 -.22512 -.98223 2539.565 758.475)"/>
<rect x="712" y="1207" width="12" height="23" fill="#FFAD5A" rx="0" transform="matrix(-.6418 .7211 -.767 -.69635 2277.592 1499.054)"/>
<rect x="1241" y="1375" width="8" height="9" fill="#d3ed90" rx="0" transform="matrix(.98358 .2443 -.1484 .97983 503.234 -451.303)"/>
<rect x="1345" y="777" width="11" height="11" fill="#2a80f0" rx="0" transform="matrix(-.08228 .91 -1.05877 -.44384 2520.148 114.748)"/>
<rect x="513" y="278" width="10" height="24" fill="#2a80f0" rx="0" transform="matrix(.71934 .77026 -.69466 .64633 346.833 -241.988)"/>
<rect x="197" y="1151" width="10" height="15" fill="#2a80f0" rx="0" transform="matrix(-.9266 .10728 -.50554 -1.02068 1187.342 2365.925)"/>
<rect x="1041" y="1057" width="8" height="21" fill="#d3ed90" rx="0" transform="matrix(-1.00584 .34207 -.15985 -.93984 2081.725 1695.069)"/>
<rect x="929" y="171" width="7" height="11" fill="#7eff87" rx="0" transform="matrix(.987 .03503 -.28076 1.0032 46.646 -114.818)"/>
<rect x="467" y="1209" width="12" height="14" fill="#FFAD5A" rx="0" transform="matrix(.94661 .40829 -.32311 .91704 625.273 -133.618)"/>
<rect x="732" y="730" width="8" height="21" fill="#f7535e" rx="0" transform="matrix(.34381 1.04505 -.94488 .0365 1199.494 169.334)"/>
<rect x="1124" y="729" width="9" height="25" fill="#7eff87" rx="0" transform="matrix(-.98769 0 -.39018 -1.01247 2744.879 1670.98)"/>
<rect x="954" y="463" width="13" height="16" fill="#7eff87" rx="0" transform="matrix(.24747 1.02293 -1.00797 -.1256 1284.794 -212.889)"/>
<rect x="1140" y="97" width="9" height="22" fill="#d3ed90" rx="0" transform="matrix(-.40674 .7735 -.91355 -.7213 1708.673 -305.282)"/>
<rect x="1354" y="537" width="13" height="31" fill="#f7535e" rx="0" transform="matrix(-.72437 .78993 -.69999 -.61716 2700.765 -276.358)"/>
<rect x="33" y="1389" width="13" height="24" fill="#7eff87" rx="0" transform="matrix(.92158 .94151 -.6518 .41919 1374.693 786.376)"/>
<rect x="239" y="195" width="11" height="29" fill="#d3ed90" rx="0" transform="matrix(.4316 1.0346 -1.01192 -.10874 420.685 49.43)"/>
<rect x="1081" y="505" width="10" height="17" fill="#7eff87" rx="0" transform="matrix(.29973 1.03634 -.99116 -.09067 1356.15 -254.003)"/>
<rect x="935" y="263" width="11" height="16" fill="#FFAD5A" rx="0" transform="matrix(-.99016 -.10556 .05296 -1.0043 1822.115 774.618)"/>
<rect x="60" y="177" width="11" height="25" fill="#FFAD5A" rx="0" transform="matrix(.31467 .9855 -.94783 .20947 266.396 77.213)"/>
<rect x="82" y="1195" width="9" height="17" fill="#2a80f0" rx="0" transform="matrix(1.00583 .27669 -.10639 .96493 233.488 25.837)"/>
<rect x="1074" y="162" width="9" height="19" fill="#7eff87" rx="0" transform="matrix(-.92005 .37483 -.39064 -.92775 2144.781 -111.313)"/>
<rect x="999" y="397" width="13" height="22" fill="#2a80f0" rx="0" transform="matrix(-.78868 .75482 -.63922 -.65616 1997.481 -100.814)"/>
<rect x="752" y="815" width="8" height="16" fill="#7eff87" rx="0" transform="matrix(-.01783 1.00617 -.99104 -.15936 1534.273 340.439)"/>
<rect x="1307" y="406" width="9" height="9" fill="#2a80f0" rx="0" transform="matrix(.24377 .91266 -.9768 .44513 1386.52 -1200.433)"/>
<rect x="943" y="844" width="9" height="10" fill="#FFAD5A" rx="0" transform="matrix(-1.00901 .17367 -.0355 -.98496 1831.463 1504.134)"/>
<rect x="136" y="170" width="11" height="14" fill="#d3ed90" rx="0" transform="matrix(-.00048 1.00786 -.99214 -.12375 306.594 81.242)"/>
<rect x="1141" y="1376" width="8" height="14" fill="#d3ed90" rx="0" transform="matrix(.91413 .97624 -.67344 .37474 1559.543 97.001)"/>
<rect x="704" y="1240" width="13" height="25" fill="#d3ed90" rx="0" transform="matrix(-.89495 .21256 -.49423 -1 2088.17 2505)"/>
<rect x="837" y="529" width="12" height="19" fill="#d3ed90" rx="0" transform="matrix(.63933 1.01955 -.8681 .17977 933.989 -191.906)"/>
<rect x="605" y="1032" width="10" height="18" fill="#FFAD5A" rx="0" transform="matrix(.05866 .93172 -1.10317 -.47473 2028.672 1153.346)"/>
<rect x="267" y="518" width="7" height="18" fill="#2a80f0" rx="0" transform="matrix(1.04605 .3473 -.0054 .95419 91.724 -22.105)"/>
<rect x="1112" y="43" width="11" height="29" fill="#f7535e" rx="0" transform="matrix(-.36508 .84805 -.95105 -.52992 1591.334 -859.723)"/>
<rect x="558" y="1109" width="8" height="14" fill="#f7535e" rx="0" transform="matrix(-.93655 .61801 -.41935 -.79102 1387.373 1602.287)"/>
<rect x="1116" y="1313" width="8" height="12" fill="#f7535e" rx="0" transform="matrix(-.93857 .14283 -.32288 -1.01632 2541.982 2758.12)"/>
<rect x="492" y="307" width="11" height="27" fill="#d3ed90" rx="0" transform="matrix(-.73135 .63086 -.682 -.77904 1079.929 291.12)"/>
<rect x="257" y="939" width="9" height="11" fill="#FFAD5A" rx="0" transform="matrix(.05105 .98362 -1.03423 -.33869 1332.13 1082.158)"/>
<rect x="1719" y="983" width="12" height="16" fill="#2a80f0" rx="0" transform="matrix(-.6952 .68241 -.71988 -.7318 3655.963 599.287)"/>
<rect x="1363" y="1115" width="9" height="13" fill="#7eff87" rx="0" transform="matrix(.8698 .96618 -.64774 .43017 1214.002 -211.329)"/>
<rect x="1445" y="793" width="13" height="16" fill="#2a80f0" rx="0" transform="matrix(-.99497 -.01755 -.01685 -1.00536 2842.517 1784.32)"/>
<rect x="702" y="714" width="7" height="19" fill="#7eff87" rx="0" transform="matrix(.04543 1.0181 -.98064 .03555 1231.186 116.646)"/>
<rect x="1487" y="1070" width="9" height="23" fill="#2a80f0" rx="0" transform="matrix(.69935 1.03777 -.9147 .07257 1957.324 -117.128)"/>
<rect x="309" y="437" width="11" height="30" fill="#2a80f0" rx="0" transform="matrix(.95155 .37474 -.18962 .97624 33.642 -10.963)"/>
<rect x="1640" y="661" width="7" height="10" fill="#2a80f0" rx="0" transform="matrix(.90058 .70766 -.48053 .7328 569.64 -665.622)"/>
<rect x="1872" y="1040" width="8" height="21" fill="#f7535e" rx="0" transform="matrix(-.59519 .7229 -.78812 -.7229 3719.154 852.499)"/>
<rect x="367" y="106" width="13" height="17" fill="#FFAD5A" rx="0" transform="matrix(-.66976 .67747 -.73224 -.7524 721.294 -111.541)"/>
<rect x="1385" y="395" width="8" height="11" fill="#2a80f0" rx="0" transform="matrix(.43667 1.03967 -.9466 .0363 1259.655 -659.847)"/>
<rect x="1406" y="751" width="9" height="25" fill="#FFAD5A" rx="0" transform="matrix(-.86112 .62516 -.49741 -.80017 3022.857 243.932)"/>
<rect x="1239" y="1159" width="7" height="14" fill="#7eff87" rx="0" transform="matrix(-.82747 .58922 -.55824 -.811 2959.225 1292.627)"/>
<rect x="863" y="26" width="8" height="14" fill="#2a80f0" rx="0" transform="matrix(1.05018 .5201 -.17492 .8656 .874 -324.642)"/>
<rect x="1968" y="323" width="10" height="29" fill="#FFAD5A" rx="0" transform="matrix(-.5779 .47229 -.98317 -.92691 3738.497 284.262)"/>
<rect x="1350" y="275" width="7" height="14" fill="#2a80f0" rx="0" transform="matrix(-.36368 .9977 -.95119 -.14022 2101.807 -1195.04)"/>
<rect x="1424" y="170" width="10" height="27" fill="#d3ed90" rx="0" transform="matrix(1.01335 .86245 -.47598 .58173 238.383 -745.925)"/>
<rect x="1340" y="917" width="7" height="11" fill="#7eff87" rx="0" transform="matrix(.07532 .94487 -1.03094 .3439 2055.588 -805.39)"/>
<rect x="411" y="32" width="7" height="16" fill="#FFAD5A" rx="0" transform="matrix(.47402 .98083 -.89253 .26281 259.646 -303.978)"/>
<rect x="1645" y="438" width="10" height="22" fill="#FFAD5A" rx="0" transform="matrix(.92558 .6597 -.41279 .7862 351.63 -611.567)"/>
<rect x="1480" y="19" width="11" height="25" fill="#d3ed90" rx="0" transform="matrix(.55768 .92252 -.83569 .41073 629.191 -1560.62)"/>
<rect x="13" y="1193" width="8" height="11" fill="#d3ed90" rx="0" transform="matrix(-.19959 .89114 -1.02046 -.45406 1564.63 1727.838)"/>
<rect x="1454" y="1084" width="8" height="19" fill="#f7535e" rx="0" transform="matrix(1.02334 .20995 .05153 .98776 69.047 -87.822)"/>
<rect x="287" y="1286" width="7" height="9" fill="#2a80f0" rx="0" transform="matrix(-.57686 .67005 -.85176 -.74416 1811.079 2071.42)"/>
<rect x="1718" y="283" width="8" height="13" fill="#f7535e" rx="0" transform="matrix(-.14247 .94276 -1.00603 -.36189 2305.082 -987.146)"/>
<rect x="1416" y="1340" width="8" height="14" fill="#f7535e" rx="0" transform="matrix(-1.01574 -.08801 -.24788 -1.00598 3496.863 3026.607)"/>
<rect x="243" y="1257" width="10" height="18" fill="#FFAD5A" rx="0" transform="matrix(.80568 .8215 -.63193 .59685 985.868 350.382)"/>
<rect x="1362" y="1144" width="12" height="32" fill="#7eff87" rx="0" transform="matrix(-.4629 .7885 -.90659 -.61604 3244.182 843.718)"/>
<rect x="637" y="1347" width="11" height="12" fill="#f7535e" rx="0" transform="matrix(-1.00129 -.01752 -.2831 -1.00367 1968.389 2778.429)"/>
<rect x="138" y="835" width="8" height="13" fill="#FFAD5A" rx="0" transform="matrix(.31053 1.04014 -.95599 .01816 917.768 719.24)"/>
<rect x="1625" y="402" width="12" height="28" fill="#d3ed90" rx="0" transform="matrix(.8445 .44268 -.5275 .90763 479.588 -912.805)"/>
<rect x="921" y="113" width="12" height="35" fill="#f7535e" rx="0" transform="matrix(-.35736 .94454 -.91434 -.38162 1322.807 -515.095)"/>
<rect x="921" y="89" width="9" height="18" fill="#FFAD5A" rx="0" transform="matrix(.5652 .95728 -.8389 .34842 499.178 -642.21)"/>
<rect x="1667" y="1110" width="13" height="17" fill="#d3ed90" rx="0" transform="matrix(.59051 .86655 -.81306 .5003 1676.985 -832.828)"/>
<rect x="170" y="1313" width="8" height="14" fill="#f7535e" rx="0" transform="matrix(-.61672 .72209 -.78932 -.69731 1346.514 2130.031)"/>
<rect x="1966" y="133" width="8" height="14" fill="#f7535e" rx="0" transform="matrix(-.87748 .55 -.467 -.84691 3756.851 -1101.781)"/>
<rect x="1536" y="1334" width="11" height="16" fill="#d3ed90" rx="0" transform="matrix(-.59102 .86603 -.81347 -.5 3403.193 678.022)"/>
<rect x="1976" y="84" width="11" height="20" fill="#f7535e" rx="0" transform="matrix(-.9971 .08749 -.0331 -1 3922.798 188)"/>
<rect x="1569" y="11" width="8" height="22" fill="#d3ed90" rx="0" transform="matrix(-.99863 0 .03527 -1.00137 3133.931 126.468)"/>
<rect x="478" y="230" width="8" height="12" fill="#2a80f0" rx="0" transform="matrix(.6329 .98805 -.78173 .35962 368.28 -168.5)"/>
<rect x="798" y="205" width="12" height="16" fill="#2a80f0" rx="0" transform="matrix(-.99655 -.03555 -.41027 -1.0181 1784.689 614.72)"/>
<rect x="1721" y="424" width="8" height="11" fill="#f7535e" rx="0" transform="matrix(-.81735 .57498 -.5719 -.82115 3342.095 -89.027)"/>
<rect x="494" y="503" width="12" height="13" fill="#f7535e" rx="0" transform="matrix(-.79337 .52146 -.5973 -.86785 1170.162 770.134)"/>
<rect x="156" y="829" width="9" height="12" fill="#d3ed90" rx="0" transform="matrix(1.01009 .19127 -.03164 .98402 214.984 -28.583)"/>
<rect x="1880" y="96" width="7" height="10" fill="#FFAD5A" rx="0" transform="matrix(.64934 .73685 -.75162 .68712 683.757 -1124.984)"/>
<rect x="1053" y="27" width="8" height="16" fill="#d3ed90" rx="0" transform="matrix(-.07063 .9962 -1.01 .08716 1161.458 -1021.028)"/>
<rect x="1373" y="293" width="7" height="16" fill="#2a80f0" rx="0" transform="matrix(-.17109 1.01295 -.97525 -.07083 1909.63 -1314.723)"/>
<rect x="257" y="1102" width="8" height="15" fill="#FFAD5A" rx="0" transform="matrix(-.69248 .44437 -.76537 -.95295 1395.403 2135.62)"/>
<rect x="629" y="683" width="9" height="25" fill="#2a80f0" rx="0" transform="matrix(.55901 .8636 -.82205 .5189 960.02 -290.277)"/>
<rect x="1431" y="707" width="10" height="19" fill="#d3ed90" rx="0" transform="matrix(-.8194 .39288 -.6149 -.92558 3175.142 966.424)"/>
<rect x="1669" y="635" width="11" height="18" fill="#d3ed90" rx="0" transform="matrix(.9545 .37928 -.27415 .93874 205.103 -330.433)"/>
<rect x="869" y="592" width="13" height="17" fill="#d3ed90" rx="0" transform="matrix(-.67869 .62607 -.69662 -.83082 1783.456 802.33)"/>
<rect x="1169" y="521" width="10" height="15" fill="#f7535e" rx="0" transform="matrix(.44122 .99315 -.95272 .12194 1322.826 -660.91)"/>
<rect x="113" y="323" width="13" height="36" fill="#FFAD5A" rx="0" transform="matrix(.51504 .9113 -.85717 .42495 350.247 99.753)"/>
<rect x="301" y="11" width="11" height="27" fill="#7eff87" rx="0" transform="matrix(-.97793 .05285 -.26133 -1.00844 617.364 76.084)"/>
<rect x="728" y="134" width="11" height="18" fill="#2a80f0" rx="0" transform="matrix(.30547 .96349 -.9445 .29457 620.006 -515.778)"/>
<rect x="1489" y="1208" width="7" height="16" fill="#f7535e" rx="0" transform="matrix(-.76245 .48547 -.68435 -.87582 3690.826 1634.644)"/>
<rect x="713" y="1156" width="11" height="17" fill="#FFAD5A" rx="0" transform="matrix(-.20575 .7659 -1.1204 -.68962 2633.694 1596.403)"/>
<rect x="556" y="809" width="10" height="29" fill="#2a80f0" rx="0" transform="matrix(.12189 .99027 -.9927 .13917 1295.733 153.35)"/>
<rect x="1643" y="1216" width="10" height="28" fill="#f7535e" rx="0" transform="matrix(-.94955 .10493 -.49603 -.99832 4243.096 2429.195)"/>
<rect x="1924" y="1159" width="8" height="12" fill="#f7535e" rx="0" transform="matrix(.35355 1.01496 -.92292 .17896 2235.325 -519.625)"/>
<rect x="687" y="899" width="8" height="14" fill="#d3ed90" rx="0" transform="matrix(.9649 .22842 -.19841 .9894 356.436 -270.079)"/>
<rect x="1652" y="71" width="9" height="18" fill="#2a80f0" rx="0" transform="matrix(.80303 .75045 -.60949 .6757 325.393 -1449.98)"/>
<rect x="295" y="1379" width="13" height="25" fill="#f7535e" rx="0" transform="matrix(.44417 .98017 -.87591 .31848 1258.097 727.99)"/>
<rect x="1661" y="66" width="11" height="19" fill="#d3ed90" rx="0" transform="matrix(.66883 .7318 -.7428 .68241 608.274 -1253.762)"/>
<rect x="1549" y="350" width="10" height="17" fill="#2a80f0" rx="0" transform="matrix(-.97158 .30944 -.24143 -.95236 3096.363 300.492)"/>
<rect x="1292" y="1385" width="8" height="23" fill="#d3ed90" rx="0" transform="matrix(-.84108 .50491 -.52374 -.87454 2951.525 2145.563)"/>
<rect x="333" y="1305" width="13" height="22" fill="#7eff87" rx="0" transform="matrix(.25193 .87796 -.99936 .48666 1342.315 347.783)"/>
<rect x="756" y="270" width="13" height="27" fill="#f7535e" rx="0" transform="matrix(1.05153 .47473 -.0427 .93172 45.423 -109.507)"/>
<rect x="488" y="622" width="11" height="22" fill="#2a80f0" rx="0" transform="matrix(-.71139 .6527 -.68429 -.77786 1202.048 890.295)"/>
<rect x="263" y="1220" width="13" height="29" fill="#2a80f0" rx="0" transform="matrix(-.85819 .55 -.49671 -.84691 1218.666 2093.915)"/>
<rect x="1867" y="645" width="9" height="15" fill="#FFAD5A" rx="0" transform="matrix(.31015 1.01845 -.95475 .0891 1932.364 -913.87)"/>
<rect x="858" y="975" width="12" height="14" fill="#7eff87" rx="0" transform="matrix(-.77796 .50008 -.65222 -.86616 2334.566 1415.582)"/>
<rect x="1453" y="417" width="12" height="24" fill="#2a80f0" rx="0" transform="matrix(.663 .87247 -.71561 .56659 709.605 -668.636)"/>
<rect x="559" y="856" width="12" height="31" fill="#FFAD5A" rx="0" transform="matrix(.95304 .39169 -.30784 .92275 426.588 -193.49)"/>
<rect x="420" y="900" width="12" height="14" fill="#FFAD5A" rx="0" transform="matrix(-.82225 .66618 -.5552 -.76635 1323.445 1243.174)"/>
<rect x="144" y="490" width="10" height="24" fill="#FFAD5A" rx="0" transform="matrix(.88894 .56469 -.45298 .83718 234.818 18.535)"/>
<rect x="1875" y="1279" width="10" height="26" fill="#7eff87" rx="0" transform="matrix(.1386 .98297 -.99038 .19107 2752.837 -704.329)"/>
<rect x="451" y="579" width="7" height="8" fill="#7eff87" rx="0" transform="matrix(-.92718 .2443 -.3746 -.97983 1094.3 1107.083)"/>
<rect x="1158" y="630" width="11" height="25" fill="#7eff87" rx="0" transform="matrix(-.4457 .78597 -.87102 -.70769 2168.749 583.343)"/>
<rect x="1486" y="1165" width="9" height="15" fill="#FFAD5A" rx="0" transform="matrix(.80205 .36284 -.66667 .94522 911.598 -712.645)"/>
<rect x="1808" y="978" width="7" height="10" fill="#2a80f0" rx="0" transform="matrix(-.89006 .40773 -.45349 -.91578 3850.26 1271.278)"/>
<rect x="145" y="1388" width="11" height="13" fill="#2a80f0" rx="0" transform="matrix(.09164 .97437 -1.04746 -.22495 2050.493 1561.552)"/>
<rect x="1881" y="279" width="7" height="11" fill="#7eff87" rx="0" transform="matrix(.66807 1 -.76997 .34433 893.495 -1049.076)"/>
<rect x="1102" y="1205" width="10" height="27" fill="#2a80f0" rx="0" transform="matrix(-.84192 .34207 -.6102 -.93984 3114.206 2004.339)"/>
<rect x="1646" y="290" width="11" height="16" fill="#2a80f0" rx="0" transform="matrix(.07295 .91444 -1.13073 -.46593 2101.88 -692.077)"/>
<rect x="1519" y="1194" width="13" height="36" fill="#f7535e" rx="0" transform="matrix(.65342 .78478 -.74511 .6355 1607.692 -969.814)"/>
<rect x="1645" y="1276" width="13" height="37" fill="#f7535e" rx="0" transform="matrix(-.40781 .71802 -.98492 -.71802 3966.064 1329.373)"/>
<rect x="171" y="330" width="7" height="17" fill="#2a80f0" rx="0" transform="matrix(.18837 1.04746 -.97117 -.09164 456.57 243.437)"/>
<rect x="1380" y="391" width="11" height="22" fill="#f7535e" rx="0" transform="matrix(.26795 1 -1.06186 -.23087 1634.548 -570.823)"/>
<rect x="212" y="84" width="13" height="34" fill="#2a80f0" rx="0" transform="matrix(-.95377 .07131 -.38283 -1.01985 481.06 234.866)"/>
<rect x="1306" y="887" width="12" height="18" fill="#d3ed90" rx="0" transform="matrix(.08716 1.00844 -.9962 -.05285 2090.242 -195.335)"/>
<rect x="1253" y="1080" width="10" height="12" fill="#2a80f0" rx="0" transform="matrix(-1.0377 -.17977 -.32254 -1.01955 3242.244 2756.465)"/>
<rect x="940" y="1194" width="9" height="23" fill="#d3ed90" rx="0" transform="matrix(-.8339 .32562 -.64928 -.94566 2911.872 2054.437)"/>
<rect x="1705" y="1142" width="9" height="22" fill="#FFAD5A" rx="0" transform="matrix(-.75208 .47826 -.67646 -.89947 3852.982 1704.803)"/>
<rect x="1925" y="1266" width="11" height="17" fill="#d3ed90" rx="0" transform="matrix(-.728 .51512 -.72971 -.8573 4598.395 1338.997)"/>
<rect x="38" y="1308" width="8" height="14" fill="#FFAD5A" rx="0" transform="matrix(1.08559 .44658 -.01348 .91562 368.673 100.372)"/>
<rect x="89" y="23" width="11" height="27" fill="#2a80f0" rx="0" transform="matrix(-.75957 .44658 -.68192 -.91562 195.97 46.088)"/>
<rect x="1860" y="359" width="12" height="18" fill="#7eff87" rx="0" transform="matrix(1.0846 .2646 .26852 .9875 -8.244 -92.517)"/>
<rect x="1570" y="429" width="11" height="16" fill="#f7535e" rx="0" transform="matrix(-.11155 .92764 -1.02834 -.41301 2301.092 -566.205)"/>
<rect x="1074" y="1342" width="13" height="30" fill="#FFAD5A" rx="0" transform="matrix(-.0389 1.02058 -.97436 -.14343 2216.173 718.298)"/>
<rect x="940" y="1016" width="8" height="18" fill="#2a80f0" rx="0" transform="matrix(-.2461 1.00736 -.997 .01758 2070.475 -59.876)"/>
<rect x="1011" y="945" width="12" height="22" fill="#d3ed90" rx="0" transform="matrix(-.69293 .73314 -.71783 -.68366 2454.33 792.864)"/>
<rect x="294" y="161" width="8" height="23" fill="#FFAD5A" rx="0" transform="matrix(.97819 .24933 -.08749 1 0 0)"/>
<rect x="841" y="828" width="11" height="32" fill="#7eff87" rx="0" transform="matrix(.65651 .7891 -.75435 .6165 1011.482 -388.661)"/>
<rect x="1343" y="565" width="7" height="19" fill="#2a80f0" rx="0" transform="matrix(.72948 .47671 -.72575 .89657 739.812 -819.898)"/>
<rect x="1341" y="696" width="10" height="25" fill="#2a80f0" rx="0" transform="matrix(-.37331 .78316 -.96364 -.65715 2653.335 406.06)"/>
<rect x="1080" y="1378" width="7" height="15" fill="#f7535e" rx="0" transform="matrix(-.97807 .07063 -.17202 -1.01 2299.968 2879.94)"/>
<rect x="237" y="534" width="9" height="25" fill="#7eff87" rx="0" transform="matrix(1.04486 .13994 .28863 .99572 17.246 -6.075)"/>
<rect x="1918" y="1008" width="10" height="13" fill="#f7535e" rx="0" transform="matrix(.57902 .9846 -.8275 .31992 1702.458 -688.188)"/>
<rect x="1720" y="716" width="8" height="13" fill="#d3ed90" rx="0" transform="matrix(-.9848 0 -.42682 -1.01543 3986.12 1760.133)"/>
<rect x="302" y="316" width="10" height="28" fill="#2a80f0" rx="0" transform="matrix(.65742 .61604 -.78182 .7885 306.875 -130.046)"/>
<rect x="1576" y="255" width="13" height="25" fill="#FFAD5A" rx="0" transform="matrix(.8121 .51504 -.59003 .85717 431.77 -776.84)"/>
<rect x="146" y="28" width="12" height="31" fill="#f7535e" rx="0" transform="matrix(-.97444 -.17753 .1066 -1.0068 284.824 146.589)"/>
<rect x="598" y="970" width="13" height="18" fill="#d3ed90" rx="0" transform="matrix(-.4969 .74873 -.88819 -.67416 2085.955 1112.17)"/>
<rect x="35" y="277" width="12" height="32" fill="#FFAD5A" rx="0" transform="matrix(-.26847 .97324 -.9505 -.27907 375.884 328.372)"/>
<rect x="515" y="273" width="10" height="28" fill="#2a80f0" rx="0" transform="matrix(.58457 .80463 -.8023 .60633 469.737 -369.275)"/>
<rect x="1900" y="573" width="8" height="18" fill="#2a80f0" rx="0" transform="matrix(-1.01336 -.10686 -.2838 -1.01674 4172.606 1781.919)"/>
<rect x="114" y="782" width="7" height="20" fill="#2a80f0" rx="0" transform="matrix(-.61703 .82916 -.78984 -.55928 774.156 1135.47)"/>
<rect x="1161" y="830" width="8" height="14" fill="#FFAD5A" rx="0" transform="matrix(-.39226 .86933 -.92383 -.50191 2428.021 346.25)"/>
<rect x="756" y="1020" width="7" height="19" fill="#2a80f0" rx="0" transform="matrix(-.13917 .9781 -.99027 -.22581 1884.683 585.559)"/>
<rect x="707" y="583" width="10" height="28" fill="#d3ed90" rx="0" transform="matrix(1.05663 .2255 .14219 .97675 72.536 -96.888)"/>
<rect x="65" y="851" width="10" height="16" fill="#f7535e" rx="0" transform="matrix(-.01515 .99677 -1.0003 -.19375 1221.841 943.317)"/>
<rect x="1091" y="1243" width="12" height="20" fill="#2a80f0" rx="0" transform="matrix(.97034 .2758 -.24176 .96185 420.396 -293.062)"/>
<rect x="1903" y="747" width="10" height="26" fill="#7eff87" rx="0" transform="matrix(-.55964 .6031 -.85886 -.8613 3725.03 883.837)"/>
<rect x="1137" y="717" width="7" height="16" fill="#2a80f0" rx="0" transform="matrix(-.71357 .75045 -.69004 -.6757 2494.09 198.714)"/>
<rect x="415" y="84" width="11" height="25" fill="#d3ed90" rx="0" transform="matrix(-.10605 1.00586 -.95972 -.32682 528.08 -150.135)"/>
<rect x="1825" y="500" width="13" height="34" fill="#7eff87" rx="0" transform="matrix(.39113 .94682 -.9215 .32601 1602.251 -1289.659)"/>
<rect x="1203" y="619" width="7" height="12" fill="#f7535e" rx="0" transform="matrix(1.01073 .20804 -.05167 .97874 132.643 -279.845)"/>
<rect x="251" y="1077" width="11" height="18" fill="#d3ed90" rx="0" transform="matrix(.241 1.02094 -.96686 .0535 1224.786 820.543)"/>
<rect x="1652" y="722" width="10" height="25" fill="#7eff87" rx="0" transform="matrix(-.6345 .51117 -.85732 -.88537 3569.043 890.003)"/>
<rect x="703" y="149" width="11" height="32" fill="#d3ed90" rx="0" transform="matrix(.9892 .1051 -.1028 1 34.134 -148.933)"/>
<rect x="840" y="803" width="12" height="16" fill="#d3ed90" rx="0" transform="matrix(-.77087 .49085 -.64658 -.88552 2055.536 1247.89)"/>
<rect x="495" y="96" width="8" height="17" fill="#FFAD5A" rx="0" transform="matrix(-.9911 .05234 -.1931 -.99878 1028.909 174.043)"/>
<rect x="1174" y="677" width="9" height="25" fill="#7eff87" rx="0" transform="matrix(.71479 .95105 -.77708 .36508 1050.479 -453.96)"/>
<rect x="308" y="773" width="9" height="26" fill="#2a80f0" rx="0" transform="matrix(-.98055 .12204 -.20836 -.9939 810.708 1545.453)"/>
<rect x="622" y="1296" width="12" height="24" fill="#2a80f0" rx="0" transform="matrix(.98783 .19154 -.13894 .98538 141.777 -46.216)"/>
<rect x="1434" y="1293" width="11" height="15" fill="#f7535e" rx="0" transform="matrix(.9722 .3092 -.242 .95164 486.155 -432.472)"/>
<rect x="1062" y="122" width="9" height="10" fill="#7eff87" rx="0" transform="matrix(1.14631 .56952 .00931 .877 -10.015 -265.714)"/>
<rect x="1270" y="1245" width="8" height="12" fill="#7eff87" rx="0" transform="matrix(-.99452 0 -.17484 -1.0055 2856.588 2642.794)"/>
<rect x="1188" y="1036" width="13" height="37" fill="#d3ed90" rx="0" transform="matrix(-.83683 .37681 -.47385 -.98162 2465.273 2027.64)"/>
<rect x="126" y="1294" width="9" height="19" fill="#7eff87" rx="0" transform="matrix(-.4232 .8121 -.9239 -.59003 1760.526 1955.207)"/>
<rect x="75" y="276" width="11" height="32" fill="#f7535e" rx="0" transform="matrix(.94552 .39169 -.32557 .92275 99.452 -3.345)"/>
<rect x="441" y="256" width="13" height="25" fill="#7eff87" rx="0" transform="matrix(-.86697 .18258 -.56007 -1.03549 1022.06 610.224)"/>
<rect x="1755" y="272" width="11" height="16" fill="#d3ed90" rx="0" transform="matrix(.27162 .97983 -.95286 .2443 1493.676 -1265.975)"/>
<rect x="1745" y="172" width="9" height="13" fill="#7eff87" rx="0" transform="matrix(-.95062 .24374 -.29 -.97758 3436.88 141.39)"/>
<rect x="273" y="224" width="13" height="36" fill="#2a80f0" rx="0" transform="matrix(-.97211 .0885 -.18808 -1.01156 576.354 511.346)"/>
<rect x="1416" y="255" width="13" height="31" fill="#f7535e" rx="0" transform="matrix(1.08129 .39388 .13746 .9749 2.925 -91.313)"/>
<rect x="428" y="186" width="7" height="19" fill="#7eff87" rx="0" transform="matrix(-.74369 .71802 -.64904 -.71802 891.84 -50.037)"/>
<rect x="1703" y="420" width="13" height="13" fill="#FFAD5A" rx="0" transform="matrix(-.23058 .89657 -.99276 -.47671 2590.771 -601.434)"/>
<rect x="407" y="1197" width="8" height="19" fill="#f7535e" rx="0" transform="matrix(-.9718 -.14343 .05712 -1.02058 534.18 2599.26)"/>
<rect x="1621" y="878" width="13" height="13" fill="#FFAD5A" rx="0" transform="matrix(-.82695 .33553 -.57867 -.97446 3530.256 1606.112)"/>
<rect x="232" y="388" width="9" height="25" fill="#7eff87" rx="0" transform="matrix(-.35193 .97106 -.92221 -.29688 726.787 248.045)"/>
<rect x="866" y="298" width="8" height="14" fill="#f7535e" rx="0" transform="matrix(-.78195 .8656 -.68544 -.5201 1727.133 -411.704)"/>
<rect x="578" y="585" width="7" height="7" fill="#FFAD5A" rx="0" transform="matrix(.2089 .95236 -.98214 .30944 1008.766 -177.88)"/>
<rect x="1240" y="707" width="7" height="13" fill="#2a80f0" rx="0" transform="matrix(-.86769 .30132 -.48062 -.98558 2629.652 1352.057)"/>
<rect x="1706" y="277" width="11" height="18" fill="#7eff87" rx="0" transform="matrix(.26694 .98263 -1.11484 -.35765 1836.42 -770.224)"/>
<rect x="931" y="176" width="7" height="10" fill="#7eff87" rx="0" transform="matrix(.92676 .35859 -.37443 .93415 138.8 -355.813)"/>
<rect x="1282" y="861" width="13" height="33" fill="#2a80f0" rx="0" transform="matrix(-1.00378 -.25167 -.05252 -1.0094 2649.726 2456.997)"/>
<rect x="1303" y="999" width="8" height="18" fill="#d3ed90" rx="0" transform="matrix(-.75436 .51574 -.68348 -.85834 3216.139 1130.635)"/>
<rect x="1744" y="219" width="8" height="10" fill="#d3ed90" rx="0" transform="matrix(.9025 .79307 -.50363 .66546 356.004 -842.97)"/>
<rect x="1590" y="284" width="11" height="16" fill="#2a80f0" rx="0" transform="matrix(.4885 .94472 -.85116 .401 995.246 -964.042)"/>
<rect x="1762" y="1084" width="11" height="21" fill="#2a80f0" rx="0" transform="matrix(.87977 .39367 -.46761 .92742 754.948 -833.384)"/>
<rect x="978" y="1019" width="11" height="21" fill="#7eff87" rx="0" transform="matrix(-.61488 .53284 -.89273 -.85272 2875.39 1486.698)"/>
<rect x="1459" y="811" width="13" height="28" fill="#f7535e" rx="0" transform="matrix(-.18711 .97125 -.97947 -.26024 2666.083 -537.69)"/>
<rect x="1194" y="272" width="10" height="19" fill="#f7535e" rx="0" transform="matrix(.2987 1.03777 -.9845 -.07257 1172.697 -598.545)"/>
<rect x="1911" y="694" width="13" height="16" fill="#2a80f0" rx="0" transform="matrix(.12339 .98721 -1.03471 -.17407 2600.296 -934.697)"/>
<rect x="1131" y="814" width="11" height="27" fill="#f7535e" rx="0" transform="matrix(.41737 .9854 -.94122 .17375 1625.345 -396.51)"/>
<rect x="41" y="1345" width="9" height="25" fill="#7eff87" rx="0" transform="matrix(-1.01163 -.18158 -.2301 -1.0298 548.04 2777.634)"/>
<rect x="613" y="151" width="12" height="23" fill="#2a80f0" rx="0" transform="matrix(-.0396 .95157 -1.0349 -.38446 849.18 -221.141)"/>
<rect x="588" y="297" width="9" height="9" fill="#2a80f0" rx="0" transform="matrix(1.01801 .50008 -.23644 .86616 150.033 -245.6)"/>
<rect x="1565" y="565" width="12" height="20" fill="#FFAD5A" rx="0" transform="matrix(.95768 .1573 -.31087 .99313 223.749 -408.28)"/>
<rect x="98" y="156" width="10" height="24" fill="#d3ed90" rx="0" transform="matrix(-.71017 .6411 -.68283 -.7917 271.102 254.992)"/>
<rect x="1477" y="1384" width="8" height="22" fill="#d3ed90" rx="0" transform="matrix(.9923 .03524 .04087 1.00921 206.671 -273.186)"/>
<rect x="686" y="1041" width="13" height="35" fill="#7eff87" rx="0" transform="matrix(-.97284 .47409 -.27967 -.89162 1595.015 1576.656)"/>
<rect x="1105" y="1131" width="12" height="30" fill="#FFAD5A" rx="0" transform="matrix(-.85136 .33284 -.53191 -.96664 2690.554 2120.135)"/>
<rect x="1245" y="282" width="12" height="18" fill="#d3ed90" rx="0" transform="matrix(.99664 .1576 -.05227 .9951 11.653 -42.141)"/>
<rect x="869" y="30" width="12" height="28" fill="#2a80f0" rx="0" transform="matrix(-.63542 .59114 -.7842 -.84423 1474.648 -217.936)"/>
<rect x="473" y="723" width="10" height="10" fill="#FFAD5A" rx="0" transform="matrix(.65606 .9806 -.75471 .3962 713.832 135.43)"/>
<rect x="362" y="444" width="11" height="13" fill="#d3ed90" rx="0" transform="matrix(.60358 .85926 -.80112 .5163 523.218 -72.171)"/>
<rect x="380" y="1304" width="13" height="31" fill="#f7535e" rx="0" transform="matrix(-.10798 .95236 -1.01494 -.30944 1979.64 1379.975)"/>
<rect x="132" y="618" width="13" height="16" fill="#f7535e" rx="0" transform="matrix(-.94615 .2105 -.29926 -.99034 607.485 1194.862)"/>
<rect x="12" y="772" width="10" height="16" fill="#2a80f0" rx="0" transform="matrix(-.83531 .69988 -.56383 -.72474 430.221 1331.313)"/>
<rect x="283" y="1234" width="13" height="27" fill="#f7535e" rx="0" transform="matrix(-.94837 .42365 -.32664 -.90852 928.683 2237.99)"/>
<rect x="991" y="1289" width="13" height="28" fill="#7eff87" rx="0" transform="matrix(-.9442 .0367 -.213 -1.05082 2017.087 2959.724)"/>
<rect x="130" y="766" width="8" height="16" fill="#FFAD5A" rx="0" transform="matrix(-1.04092 -.27373 -.23156 -1.02158 582.607 1647.525)"/>
<rect x="944" y="899" width="10" height="17" fill="#7eff87" rx="0" transform="matrix(-.97059 .05262 -.4827 -1.00413 2635.41 1868.552)"/>
<rect x="57" y="124" width="13" height="17" fill="#2a80f0" rx="0" transform="matrix(.82737 .6821 -.5788 .73147 108.464 -8.841)"/>
<rect x="160" y="1261" width="9" height="24" fill="#f7535e" rx="0" transform="matrix(.82872 .74416 -.5976 .67005 1127.719 288.992)"/>
<rect x="89" y="45" width="7" height="15" fill="#d3ed90" rx="0" transform="matrix(-.73949 .5003 -.71795 -.86655 212.723 48.486)"/>
<rect x="456" y="329" width="12" height="26" fill="#f7535e" rx="0" transform="matrix(.96788 .30415 -.12201 .99484 6.7 -6.28)"/>
<rect x="501" y="1266" width="7" height="7" fill="#f7535e" rx="0" transform="matrix(.20943 .94682 -.98406 .32601 1561.182 351.516)"/>
<rect x="668" y="155" width="8" height="10" fill="#d3ed90" rx="0" transform="matrix(.9287 .62931 -.3566 .83513 98.585 -191.068)"/>
<rect x="211" y="511" width="8" height="10" fill="#2a80f0" rx="0" transform="matrix(.93192 .50623 -.36125 .87682 348.389 -79.332)"/>
<rect x="1598" y="994" width="8" height="8" fill="#f7535e" rx="0" transform="matrix(-.2721 1 -.95202 -.17633 3038.046 -710.501)"/>
<rect x="587" y="795" width="7" height="10" fill="#FFAD5A" rx="0" transform="matrix(.03348 1.00137 -.99629 .07002 1263.187 204.332)"/>
<rect x="1877" y="698" width="10" height="16" fill="#d3ed90" rx="0" transform="matrix(-.1639 .8917 -1.01904 -.55719 3025.188 32.713)"/>
<rect x="191" y="1334" width="11" height="32" fill="#7eff87" rx="0" transform="matrix(-.64244 .59685 -.79121 -.8215 1512.016 2376.388)"/>
<rect x="928" y="630" width="10" height="18" fill="#2a80f0" rx="0" transform="matrix(-.05276 .98829 -1.0035 -.15653 1670.42 -150.471)"/>
<rect x="1763" y="1345" width="9" height="14" fill="#FFAD5A" rx="0" transform="matrix(-.3452 .69994 -1.05852 -.7506 4346.86 1537.72)"/>
<rect x="1914" y="919" width="9" height="13" fill="#7eff87" rx="0" transform="matrix(-.34202 .8977 -.9397 -.4574 3444.351 -137.848)"/>
<rect x="1152" y="1067" width="10" height="13" fill="#d3ed90" rx="0" transform="matrix(-.98286 .1046 -.20961 -.99513 2664.386 1980.354)"/>
<rect x="1319" y="763" width="12" height="27" fill="#2a80f0" rx="0" transform="matrix(-.73893 .77762 -.6876 -.6297 2692.929 281.39)"/>
<rect x="817" y="470" width="12" height="16" fill="#7eff87" rx="0" transform="matrix(.77703 .62942 -.62922 .77726 492.364 -425.907)"/>
<rect x="54" y="349" width="12" height="24" fill="#2a80f0" rx="0" transform="matrix(.63024 .82228 -.77483 .57577 358.246 98.562)"/>
<rect x="415" y="721" width="13" height="25" fill="#7eff87" rx="0" transform="matrix(-.62421 .65696 -.80409 -.75575 1451.78 988.84)"/>
<rect x="1440" y="473" width="13" height="29" fill="#7eff87" rx="0" transform="matrix(.19438 1 -.96921 .15838 1688.048 -1265.316)"/>
<rect x="1696" y="110" width="10" height="12" fill="#2a80f0" rx="0" transform="matrix(-.24192 1 -.9703 -.12278 2225.063 -1779.614)"/>
<rect x="909" y="1188" width="9" height="25" fill="#2a80f0" rx="0" transform="matrix(1.02547 .43864 -.17726 .89934 569.232 -311.756)"/>
<rect x="1182" y="566" width="13" height="26" fill="#f7535e" rx="0" transform="matrix(-.9078 .2598 -.46107 -.96962 2618.232 935.606)"/>
<rect x="180" y="317" width="12" height="35" fill="#d3ed90" rx="0" transform="matrix(.21047 .99572 -.97472 .13994 528.429 82.936)"/>
<rect x="1460" y="192" width="11" height="22" fill="#d3ed90" rx="0" transform="matrix(.9759 .12375 -.13274 1.00786 53.483 -441.357)"/>
<rect x="1766" y="1123" width="7" height="11" fill="#FFAD5A" rx="0" transform="matrix(.46652 .87454 -.87412 .50491 2022.897 -1237.474)"/>
<rect x="651" y="773" width="9" height="19" fill="#2a80f0" rx="0" transform="matrix(1.01163 .19084 -.03567 .98178 131.87 -99.393)"/>
<rect x="1819" y="700" width="12" height="21" fill="#d3ed90" rx="0" transform="matrix(-1.01363 -.20063 -.23035 -1.03214 3975.547 2402.964)"/>
<rect x="366" y="85" width="9" height="25" fill="#d3ed90" rx="0" transform="matrix(.95483 .60852 -.32912 .83756 55.696 -110.343)"/>
<rect x="1009" y="397" width="8" height="15" fill="#f7535e" rx="0" transform="matrix(-.90716 .22581 -.49914 -.9781 2229.712 660.018)"/>
<rect x="1531" y="868" width="7" height="7" fill="#2a80f0" rx="0" transform="matrix(-.42009 .86785 -.89986 -.52146 2904.94 237.273)"/>
<rect x="1575" y="970" width="11" height="18" fill="#f7535e" rx="0" transform="matrix(.53061 1.0275 -.8892 .16274 1762.928 -351.07)"/>
<rect x="1835" y="674" width="12" height="32" fill="#d3ed90" rx="0" transform="matrix(-.88877 .30944 -.49627 -.95236 3967.638 680.966)"/>
<rect x="541" y="1296" width="9" height="10" fill="#7eff87" rx="0" transform="matrix(-1.00814 -.14553 -.30197 -1.03552 1694.582 2894.37)"/>
<rect x="1754" y="59" width="12" height="30" fill="#2a80f0" rx="0" transform="matrix(.73107 1.04746 -.89073 .09164 749.08 -1204.454)"/>
<rect x="421" y="390" width="13" height="20" fill="#FFAD5A" rx="0" transform="matrix(.20961 .99513 -.98286 .1046 785.155 -82.183)"/>
<rect x="722" y="569" width="8" height="21" fill="#2a80f0" rx="0" transform="matrix(-.32204 .9824 -.93763 -.24494 1535.638 -106.761)"/>
<rect x="728" y="436" width="9" height="18" fill="#2a80f0" rx="0" transform="matrix(1.00291 .29688 -.08796 .97106 57.058 -75.427)"/>
<rect x="1742" y="236" width="8" height="11" fill="#FFAD5A" rx="0" transform="matrix(-.22838 .74472 -1.12225 -.71916 2660.026 -417.256)"/>
<rect x="1563" y="451" width="10" height="10" fill="#f7535e" rx="0" transform="matrix(.31592 1.01231 -.98232 .01767 1619.568 -891.014)"/>
<rect x="1028" y="990" width="8" height="12" fill="#FFAD5A" rx="0" transform="matrix(-.35173 .76651 -1.00948 -.64318 2755.782 881.605)"/>
<rect x="1830" y="883" width="12" height="22" fill="#f7535e" rx="0" transform="matrix(.98403 .10467 -.19121 .99589 172.4 -284.721)"/>
<rect x="1211" y="141" width="13" height="22" fill="#d3ed90" rx="0" transform="matrix(.99003 .06985 -.15784 .99893 5.8 -21.076)"/>
<rect x="242" y="1020" width="13" height="30" fill="#f7535e" rx="0" transform="matrix(-.99756 -.0351 -.06976 -1.0049 568.593 2109.906)"/>
<rect x="736" y="337" width="7" height="19" fill="#f7535e" rx="0" transform="matrix(.8906 .46976 -.4538 .88349 231.646 -281.19)"/>
<rect x="240" y="1375" width="12" height="26" fill="#FFAD5A" rx="0" transform="matrix(-.8028 .25046 -.77285 -1.00452 1933.112 2786.583)"/>
<rect x="499" y="587" width="8" height="14" fill="#FFAD5A" rx="0" transform="matrix(-.7574 .33705 -.76726 -.97887 1494.628 1140.691)"/>
<rect x="1127" y="741" width="13" height="36" fill="#FFAD5A" rx="0" transform="matrix(-.9734 -.05418 -.11746 -1.03386 2233.034 1908.834)"/>
<rect x="1734" y="19" width="9" height="17" fill="#7eff87" rx="0" transform="matrix(-.32901 .9901 -.95789 -.15682 2346.721 -1811.044)"/>
<rect x="586" y="336" width="10" height="22" fill="#d3ed90" rx="0" transform="matrix(.86739 .55996 -.49988 .83018 290.635 -302.98)"/>
<rect x="1726" y="416" width="11" height="24" fill="#d3ed90" rx="0" transform="matrix(-.893 .3908 -.45515 -.92065 3507.326 115.159)"/>
<rect x="432" y="49" width="7" height="14" fill="#2a80f0" rx="0" transform="matrix(-1.01659 .39367 -.1453 -.92742 886.005 -116.979)"/>
<rect x="449" y="538" width="9" height="12" fill="#f7535e" rx="0" transform="matrix(-.0883 .9707 -1.00486 -.27835 1072.036 318.94)"/>
<rect x="1270" y="871" width="13" height="20" fill="#2a80f0" rx="0" transform="matrix(-.64368 .6297 -.79317 -.77762 2960.143 806.842)"/>
<rect x="1300" y="189" width="8" height="8" fill="#7eff87" rx="0" transform="matrix(.78651 .82366 -.66336 .57674 458.69 -855.312)"/>
<rect x="771" y="958" width="7" height="19" fill="#f7535e" rx="0" transform="matrix(-.16655 .9323 -1.00534 -.37667 2164.066 528.466)"/>
<rect x="1035" y="499" width="13" height="35" fill="#f7535e" rx="0" transform="matrix(.58091 .87401 -.78116 .54614 717.016 -416.189)"/>
<rect x="1417" y="299" width="12" height="34" fill="#f7535e" rx="0" transform="matrix(-.52146 .76604 -.86785 -.64279 2489.326 -570.96)"/>
<rect x="735" y="740" width="7" height="7" fill="#7eff87" rx="0" transform="matrix(-1.0016 -.01752 -.30147 -1.00367 1888.899 1567.275)"/>
<rect x="479" y="110" width="12" height="24" fill="#f7535e" rx="0" transform="matrix(.81892 .3639 -.61468 .94798 158.98 -255.662)"/>
<rect x="646" y="1179" width="13" height="15" fill="#d3ed90" rx="0" transform="matrix(.99014 -.01758 .14663 1.00736 108.306 -77.372)"/>
<rect x="810" y="259" width="11" height="28" fill="#d3ed90" rx="0" transform="matrix(-.8432 .34286 -.59999 -.94199 1741.299 193.539)"/>
<rect x="1035" y="1370" width="7" height="13" fill="#f7535e" rx="0" transform="matrix(-.33222 .86655 -.96219 -.5003 2931.726 1201.52)"/>
<rect x="1096" y="520" width="8" height="17" fill="#d3ed90" rx="0" transform="matrix(.54479 .85769 -.83858 .51535 978.198 -725.735)"/>
<rect x="1492" y="345" width="11" height="21" fill="#FFAD5A" rx="0" transform="matrix(-.49517 .88119 -.86036 -.48845 2562.91 -974.305)"/>
<rect x="455" y="383" width="7" height="12" fill="#d3ed90" rx="0" transform="matrix(.17511 1.00536 -.99773 -.01755 804.577 -16.939)"/>
<rect x="59" y="810" width="11" height="32" fill="#2a80f0" rx="0" transform="matrix(-.81915 .58787 -.57358 -.80914 591.11 1455.306)"/>
<rect x="395" y="822" width="11" height="11" fill="#d3ed90" rx="0" transform="matrix(.25848 .96962 -.96208 .2598 1162.43 189.139)"/>
<rect x="948" y="29" width="7" height="7" fill="#FFAD5A" rx="0" transform="matrix(-.96593 0 -.24075 -1.03528 1873.385 321.1)"/>
<rect x="578" y="1307" width="9" height="13" fill="#FFAD5A" rx="0" transform="matrix(.0451 1.0148 -.98698 -.03544 2154.51 666.212)"/>
<rect x="1338" y="66" width="13" height="17" fill="#7eff87" rx="0" transform="matrix(.12006 1.04155 -.98128 -.18365 1237.413 -849.237)"/>
<rect x="148" y="306" width="8" height="14" fill="#2a80f0" rx="0" transform="matrix(.48015 .99027 -.94235 .13917 481.746 118.918)"/>
<rect x="305" y="58" width="10" height="18" fill="#f7535e" rx="0" transform="matrix(.24584 .9113 -.9827 .42495 296.62 -276.557)"/>
<rect x="1236" y="265" width="7" height="8" fill="#FFAD5A" rx="0" transform="matrix(.94 .31072 -.32533 .9563 112.864 -243.103)"/>
<rect x="165" y="846" width="12" height="31" fill="#2a80f0" rx="0" transform="matrix(.01692 .98872 -1.01723 -.34044 1092.342 1038.001)"/>
<rect x="1804" y="754" width="12" height="20" fill="#7eff87" rx="0" transform="matrix(-.8997 .461 -.40346 -.90475 3801.325 301.68)"/>
<rect x="1143" y="1008" width="8" height="22" fill="#f7535e" rx="0" transform="matrix(1.00733 .0349 .19688 .99954 40.045 -59.591)"/>
<rect x="1663" y="597" width="8" height="11" fill="#7eff87" rx="0" transform="matrix(-.14175 1.00518 -.9542 -.28823 2302.058 -389.828)"/>
<rect x="630" y="651" width="9" height="10" fill="#7eff87" rx="0" transform="matrix(-.96312 -.09164 -.09634 -1.04746 1202.937 1607.442)"/>
<rect x="865" y="260" width="13" height="23" fill="#d3ed90" rx="0" transform="matrix(-.88601 .12814 -.58791 -1.04362 1891.129 726.337)"/>
<rect x="25" y="362" width="7" height="20" fill="#f7535e" rx="0" transform="matrix(.50978 .89162 -.8505 .47409 297.459 174.234)"/>
<rect x="1403" y="658" width="11" height="26" fill="#f7535e" rx="0" transform="matrix(.6293 .76616 -.77716 .64289 1019.309 -814.929)"/>
<rect x="74" y="1200" width="11" height="29" fill="#f7535e" rx="0" transform="matrix(-.98225 .01772 -.15535 -1.01527 303.366 2460.157)"/>
<rect x="1753" y="540" width="12" height="17" fill="#f7535e" rx="0" transform="matrix(-.9983 .53513 -.2711 -.85638 3615.99 -170.274)"/>
<rect x="475" y="776" width="7" height="9" fill="#2a80f0" rx="0" transform="matrix(.99133 .13936 -.12178 .99163 71.07 -35.074)"/>
<rect x="1581" y="463" width="11" height="23" fill="#f7535e" rx="0" transform="matrix(-.73496 .59356 -.67316 -.81697 3134.638 -302.503)"/>
<rect x="608" y="958" width="10" height="16" fill="#7eff87" rx="0" transform="matrix(-.9553 -.18365 .02722 -1.04155 964.758 2295.793)"/>
<rect x="653" y="545" width="12" height="20" fill="#7eff87" rx="0" transform="matrix(-.22636 .92955 -.9797 -.39457 1374.521 254.03)"/>
<rect x="1102" y="926" width="13" height="19" fill="#7eff87" rx="0" transform="matrix(.14737 .91266 -1.02382 .44513 1798.917 -688.064)"/>
<rect x="196" y="878" width="13" height="26" fill="#2a80f0" rx="0" transform="matrix(.80936 .56469 -.57097 .83718 401.71 59.178)"/>
<rect x="1974" y="92" width="11" height="27" fill="#f7535e" rx="0" transform="matrix(.40957 1.01527 -.9921 -.01772 1386.752 -1553.322)"/>
<rect x="137" y="180" width="12" height="32" fill="#7eff87" rx="0" transform="matrix(-.83338 .45461 -.56406 -.89223 405.969 298.373)"/>
<rect x="766" y="1269" width="8" height="15" fill="#f7535e" rx="0" transform="matrix(-.51542 .88349 -.85783 -.46976 2240.077 1168.973)"/>
<rect x="332" y="924" width="9" height="23" fill="#2a80f0" rx="0" transform="matrix(-.67055 .6508 -.73744 -.7756 1504.98 1388.777)"/>
<rect x="874" y="1226" width="7" height="11" fill="#7eff87" rx="0" transform="matrix(1.06448 .4565 -.10147 .89591 447.953 -180.16)"/>
<rect x="1802" y="161" width="10" height="14" fill="#d3ed90" rx="0" transform="matrix(.19462 .9977 -1.02965 -.14022 1711.18 -1389.424)"/>
<rect x="162" y="379" width="9" height="12" fill="#d3ed90" rx="0" transform="matrix(-.92203 .16195 -.35315 -1.02253 433.465 796.323)"/>
<rect x="1325" y="374" width="8" height="9" fill="#d3ed90" rx="0" transform="matrix(1.0281 .40648 -.03809 .9576 43.516 -143.076)"/>
<rect x="124" y="438" width="9" height="12" fill="#FFAD5A" rx="0" transform="matrix(.15892 1.01006 -1.03262 -.27064 625.903 473.66)"/>
<rect x="1163" y="372" width="11" height="17" fill="#f7535e" rx="0" transform="matrix(-.28248 1.01404 -1.00096 .05314 1851.808 -1030.659)"/>
<rect x="1035" y="1263" width="13" height="38" fill="#7eff87" rx="0" transform="matrix(.17444 1.00983 -.99027 0 2179.227 376.638)"/>
<rect x="1863" y="510" width="12" height="31" fill="#FFAD5A" rx="0" transform="matrix(-.38707 .6825 -1.01993 -.78512 3373.46 198.421)"/>
<rect x="560" y="300" width="13" height="25" fill="#2a80f0" rx="0" transform="matrix(.1787 1.04505 -.95065 .0365 694.086 -117.731)"/>
<rect x="131" y="272" width="7" height="8" fill="#2a80f0" rx="0" transform="matrix(.03029 1.00737 -.99057 .07044 351.824 139.97)"/>
<rect x="835" y="484" width="9" height="15" fill="#f7535e" rx="0" transform="matrix(-.31034 .9707 -.94119 -.27835 1455.152 -68.619)"/>
<rect x="488" y="158" width="10" height="16" fill="#7eff87" rx="0" transform="matrix(-.17486 1 -.9939 -.03492 728.555 -338.42)"/>
<rect x="1327" y="55" width="11" height="18" fill="#2a80f0" rx="0" transform="matrix(-1.0155 -.19953 -.21242 -1.02648 2748.784 802.951)"/>
<rect x="698" y="885" width="9" height="15" fill="#f7535e" rx="0" transform="matrix(.98536 .13951 -.1566 .99269 67.675 -42.357)"/>
<rect x="1266" y="119" width="10" height="23" fill="#FFAD5A" rx="0" transform="matrix(1.10326 .56952 -.05698 .877 5.614 -319.23)"/>
<rect x="548" y="1025" width="11" height="11" fill="#f7535e" rx="0" transform="matrix(.47186 1.0023 -.93977 .12307 1496.327 426.695)"/>
<rect x="1716" y="1100" width="10" height="25" fill="#FFAD5A" rx="0" transform="matrix(.9683 .22716 -.20797 .98395 119.62 -131.214)"/>
<rect x="154" y="345" width="11" height="13" fill="#7eff87" rx="0" transform="matrix(.248 1.05002 -.93936 .05503 407.738 216.504)"/>
<rect x="522" y="1373" width="7" height="11" fill="#2a80f0" rx="0" transform="matrix(-.87482 .23289 -.5047 -1.00874 1733.996 2787.476)"/>
<rect x="309" y="282" width="7" height="7" fill="#d3ed90" rx="0" transform="matrix(.03439 1.0069 -.99435 -.03516 568.668 19.254)"/>
<rect x="1555" y="1354" width="9" height="16" fill="#7eff87" rx="0" transform="matrix(.88033 .69476 -.52773 .71945 1238.187 -728.596)"/>
<rect x="1418" y="1265" width="10" height="21" fill="#d3ed90" rx="0" transform="matrix(-.73164 .5201 -.70505 -.8656 3492.508 1839.45)"/>
<rect x="1183" y="605" width="11" height="11" fill="#f7535e" rx="0" transform="matrix(-.32237 .81648 -.98185 -.61526 2277.033 268.356)"/>
<rect x="878" y="226" width="7" height="8" fill="#7eff87" rx="0" transform="matrix(-.99254 .06977 -.13944 -.99772 1801.355 413.362)"/>
<rect x="1049" y="1212" width="13" height="24" fill="#FFAD5A" rx="0" transform="matrix(-.27105 .83082 -.99938 -.62607 2725.291 1416.036)"/>
<rect x="1177" y="452" width="7" height="15" fill="#2a80f0" rx="0" transform="matrix(.83354 .82402 -.56234 .6438 469.227 -448.159)"/>
<rect x="1866" y="120" width="10" height="13" fill="#7eff87" rx="0" transform="matrix(.9556 .59141 -.27412 .8768 104.29 -446.715)"/>
<rect x="1962" y="211" width="10" height="12" fill="#f7535e" rx="0" transform="matrix(-.96893 .07002 -.42475 -1.00137 4069.305 468.653)"/>
<rect x="1294" y="684" width="12" height="35" fill="#2a80f0" rx="0" transform="matrix(.87922 .79102 -.57727 .61801 765.224 -646.628)"/>
<rect x="1008" y="576" width="8" height="23" fill="#f7535e" rx="0" transform="matrix(.63206 1.03512 -.95504 .01807 1229.106 -199.49)"/>
<rect x="70" y="1086" width="12" height="25" fill="#FFAD5A" rx="0" transform="matrix(-.93602 .19268 -.37442 -.99127 911.892 2162.09)"/>
<rect x="1896" y="727" width="10" height="12" fill="#f7535e" rx="0" transform="matrix(-.20753 .95236 -.9826 -.30944 3116.068 -950.246)"/>
<rect x="1686" y="599" width="8" height="12" fill="#7eff87" rx="0" transform="matrix(-.40604 .7756 -.94863 -.6508 3072.768 -44.349)"/>
<rect x="313" y="231" width="13" height="13" fill="#7eff87" rx="0" transform="matrix(.73655 .58814 -.68648 .80951 227.408 -153.828)"/>
<rect x="1954" y="1336" width="12" height="32" fill="#FFAD5A" rx="0" transform="matrix(-.53121 .88295 -.85012 -.46947 4055.998 256.148)"/>
<rect x="1159" y="227" width="8" height="11" fill="#d3ed90" rx="0" transform="matrix(.99384 .66099 -.36961 .76038 186.67 -570.216)"/>
<rect x="272" y="1156" width="10" height="13" fill="#f7535e" rx="0" transform="matrix(.01676 .98223 -1.02135 -.19093 1666.367 1122.047)"/>
<rect x="1441" y="129" width="11" height="18" fill="#FFAD5A" rx="0" transform="matrix(-.31163 .98178 -.95799 -.19084 2006.529 -1230.556)"/>
<rect x="664" y="1351" width="9" height="18" fill="#2a80f0" rx="0" transform="matrix(1.00008 .37483 -.19255 .92775 570.402 -175.66)"/>
<rect x="1028" y="472" width="13" height="25" fill="#f7535e" rx="0" transform="matrix(-.99663 .01746 -.19328 -1 2238.753 969)"/>
<rect x="1974" y="1225" width="10" height="27" fill="#2a80f0" rx="0" transform="matrix(-.35933 .74724 -1.01472 -.67282 4389.085 801)"/>
<rect x="1492" y="934" width="7" height="14" fill="#2a80f0" rx="0" transform="matrix(-.97916 -.12508 .02055 -1.01865 2782.573 2431.867)"/>
<rect x="1331" y="147" width="13" height="13" fill="#f7535e" rx="0" transform="matrix(-.45473 .93715 -.89251 -.35974 2082.064 -1161.73)"/>
<rect x="790" y="714" width="7" height="7" fill="#FFAD5A" rx="0" transform="matrix(.63107 .89441 -.7965 .45572 1050.07 -388.62)"/>
<rect x="21" y="177" width="13" height="21" fill="#7eff87" rx="0" transform="matrix(.93183 .61716 -.42762 .78993 138.79 20.492)"/>
<rect x="1259" y="1007" width="13" height="34" fill="#d3ed90" rx="0" transform="matrix(-1.006 .0349 .1588 -.99954 2199.327 1981.27)"/>
<rect x="767" y="395" width="13" height="18" fill="#f7535e" rx="0" transform="matrix(-.80825 .50936 -.56333 -.88223 1568 516.787)"/>
<rect x="312" y="1210" width="11" height="17" fill="#d3ed90" rx="0" transform="matrix(-.86578 .37512 -.52292 -.92846 1485.025 2214.084)"/>
<rect x="1812" y="1319" width="7" height="19" fill="#2a80f0" rx="0" transform="matrix(-.34882 .67587 -1.06387 -.80547 4376.17 1761.418)"/>
<rect x="1276" y="12" width="11" height="11" fill="#7eff87" rx="0" transform="matrix(.93761 .19224 -.37817 .989 96.345 -403.514)"/>
<rect x="1774" y="553" width="8" height="16" fill="#d3ed90" rx="0" transform="matrix(.0524 1 -1.00275 -.0524 2281.644 -1094.418)"/>
<rect x="1760" y="439" width="12" height="31" fill="#FFAD5A" rx="0" transform="matrix(.72814 .95814 -.76419 .3678 979.461 -997.02)"/>
<rect x="1747" y="660" width="7" height="20" fill="#d3ed90" rx="0" transform="matrix(1.00205 .49363 -.14123 .92839 134.3 -247.349)"/>
<rect x="888" y="592" width="9" height="9" fill="#f7535e" rx="0" transform="matrix(-.58456 .5308 -.91106 -.8834 2146.753 872.235)"/>
<rect x="1705" y="445" width="9" height="11" fill="#2a80f0" rx="0" transform="matrix(-.29315 .92846 -.95862 -.37512 2661.35 -878.113)"/>
<rect x="1110" y="1159" width="9" height="21" fill="#d3ed90" rx="0" transform="matrix(.78156 1.0262 -.7796 .25586 1513.794 110.318)"/>
<rect x="380" y="1085" width="13" height="33" fill="#d3ed90" rx="0" transform="matrix(.81006 .82954 -.65909 .55953 1098.162 178.052)"/>
<rect x="319" y="74" width="11" height="16" fill="#FFAD5A" rx="0" transform="matrix(.33595 1.0181 -.99396 -.03555 322.569 -182.38)"/>
<rect x="924" y="225" width="11" height="17" fill="#f7535e" rx="0" transform="matrix(.15617 .98538 -.98448 .19154 1022.192 -808.453)"/>
<rect x="115" y="788" width="13" height="26" fill="#FFAD5A" rx="0" transform="matrix(.34372 .97044 -.94476 .24196 906.752 491.403)"/>
<rect x="1122" y="27" width="10" height="20" fill="#f7535e" rx="0" transform="matrix(-.34023 .94472 -.9141 -.401 1491.856 -752.671)"/>
<rect x="1840" y="704" width="12" height="19" fill="#FFAD5A" rx="0" transform="matrix(.05125 .98354 -1.02763 -.20906 2628.35 -758.922)"/>
<rect x="106" y="126" width="12" height="27" fill="#d3ed90" rx="0" transform="matrix(-.48289 .86189 -.8701 -.51788 276.884 126.984)"/>
<rect x="297" y="333" width="11" height="14" fill="#f7535e" rx="0" transform="matrix(.81293 .43897 -.6113 .90003 218.876 -114.652)"/>
<rect x="1769" y="398" width="13" height="23" fill="#f7535e" rx="0" transform="matrix(-.97754 .01772 -.4252 -1.01527 3852.054 1106.858)"/>
<rect x="959" y="684" width="8" height="13" fill="#FFAD5A" rx="0" transform="matrix(.91146 .69252 -.46658 .74264 497.865 -319.383)"/>
<rect x="906" y="777" width="10" height="13" fill="#FFAD5A" rx="0" transform="matrix(.26024 .93358 -.97125 .35837 1352.54 -347.773)"/>
<rect x="1574" y="370" width="7" height="12" fill="#d3ed90" rx="0" transform="matrix(-.97714 -.14634 -.11908 -1.04123 3117.143 1510.907)"/>
<rect x="149" y="986" width="7" height="16" fill="#FFAD5A" rx="0" transform="matrix(.99285 .19186 -.10438 .98703 87.22 -.342)"/>
<rect x="1886" y="966" width="10" height="14" fill="#f7535e" rx="0" transform="matrix(.47332 1.02068 -1.02948 -.10728 2482.998 -416.156)"/>
<rect x="1814" y="210" width="11" height="20" fill="#f7535e" rx="0" transform="matrix(-.01466 .95689 -1.04057 -.29255 2125.931 -1520.234)"/>
<rect x="238" y="91" width="10" height="26" fill="#FFAD5A" rx="0" transform="matrix(.98988 .28536 -.0522 .99517 1.982 -3.729)"/>
<rect x="1859" y="859" width="11" height="30" fill="#f7535e" rx="0" transform="matrix(-.7396 .7885 -.6904 -.61604 3747.583 -122.835)"/>
<rect x="1680" y="861" width="13" height="15" fill="#7eff87" rx="0" transform="matrix(-.80855 .40898 -.6291 -.91858 3743.458 1153.803)"/>
<rect x="1828" y="330" width="12" height="17" fill="#2a80f0" rx="0" transform="matrix(.94335 .29688 -.28277 .97106 202.27 -858.068)"/>
<rect x="1424" y="1149" width="12" height="34" fill="#FFAD5A" rx="0" transform="matrix(-.13613 .8851 -1.05743 -.47062 3244.685 549.038)"/>
<rect x="1982" y="1315" width="10" height="28" fill="#2a80f0" rx="0" transform="matrix(-.99954 .01745 -.0349 -.99985 4042.678 2623.12)"/>
<rect x="561" y="941" width="9" height="26" fill="#FFAD5A" rx="0" transform="matrix(-.4074 .95469 -.91509 -.3102 1653.09 660.577)"/>
<rect x="1057" y="488" width="7" height="18" fill="#7eff87" rx="0" transform="matrix(-.1099 .91355 -1.0457 -.40674 1858.256 -269.667)"/>
<rect x="1118" y="1162" width="10" height="19" fill="#d3ed90" rx="0" transform="matrix(-.00001 1.00046 -.99954 -.01746 2272.843 107.66)"/>
<rect x="321" y="504" width="13" height="15" fill="#f7535e" rx="0" transform="matrix(.93526 .5922 -.40134 .8151 388.764 -139.577)"/>
<rect x="1390" y="313" width="8" height="17" fill="#FFAD5A" rx="0" transform="matrix(-.47068 .9141 -.8844 -.40698 2295.561 -773.234)"/>
<rect x="602" y="830" width="7" height="10" fill="#7eff87" rx="0" transform="matrix(1.0146 .1392 .035 .99042 95.866 -65.713)"/>
<rect x="1370" y="593" width="7" height="7" fill="#7eff87" rx="0" transform="matrix(.43493 .90374 -.89438 .44079 1231.75 -763.362)"/>
<rect x="813" y="1232" width="8" height="12" fill="#f7535e" rx="0" transform="matrix(.83973 .9176 -.69822 .42789 1413.39 87.994)"/>
<rect x="111" y="35" width="13" height="30" fill="#7eff87" rx="0" transform="matrix(-.18874 .96256 -.95878 -.40858 180.099 -6.749)"/>
<rect x="1155" y="1320" width="13" height="33" fill="#FFAD5A" rx="0" transform="matrix(1.00328 .44005 -.21547 .90223 511.944 -278.822)"/>
<rect x="1970" y="722" width="8" height="22" fill="#FFAD5A" rx="0" transform="matrix(.97964 .65114 -.2819 .83342 320.847 -483.535)"/>
<rect x="1730" y="1142" width="13" height="26" fill="#2a80f0" rx="0" transform="matrix(1.10924 .38298 .13434 .9479 150.344 -235.754)"/>
<rect x="1067" y="1199" width="11" height="21" fill="#d3ed90" rx="0" transform="matrix(.86879 .83179 -.5939 .58242 1130.9 -197.926)"/>
<rect x="1389" y="997" width="10" height="21" fill="#FFAD5A" rx="0" transform="matrix(.95577 .35974 -.28994 .93715 494.028 -560.108)"/>
<rect x="629" y="1244" width="11" height="25" fill="#FFAD5A" rx="0" transform="matrix(.9111 .44658 -.37124 .91562 353.455 -53.99)"/>
<rect x="1408" y="84" width="9" height="25" fill="#FFAD5A" rx="0" transform="matrix(.99622 .12194 -.08699 .99315 17.039 -220.91)"/>
<rect x="1751" y="358" width="7" height="14" fill="#7eff87" rx="0" transform="matrix(.91834 .61147 -.37141 .84162 248.523 -511.925)"/>
<rect x="1382" y="122" width="9" height="12" fill="#f7535e" rx="0" transform="matrix(.58882 .85129 -.80675 .53194 674.425 -1241.702)"/>
<rect x="525" y="1262" width="13" height="31" fill="#2a80f0" rx="0" transform="matrix(-.2809 .85216 -.97679 -.5967 2003.59 1739.253)"/>
<rect x="1400" y="1033" width="11" height="22" fill="#FFAD5A" rx="0" transform="matrix(-.85108 .60218 -.5312 -.79912 3022.06 1080.998)"/>
<rect x="744" y="1060" width="10" height="17" fill="#7eff87" rx="0" transform="matrix(.82366 .48481 -.57674 .87462 636.014 -229.154)"/>
<rect x="1506" y="1014" width="13" height="32" fill="#FFAD5A" rx="0" transform="matrix(.95681 .55953 -.36867 .82954 655.535 -617.906)"/>
<rect x="1409" y="239" width="13" height="27" fill="#FFAD5A" rx="0" transform="matrix(.96565 .94505 -.58717 .46093 401.172 -741.677)"/>
<rect x="1420" y="1232" width="9" height="25" fill="#f7535e" rx="0" transform="matrix(.71215 .61604 -.71177 .7885 1191.317 -664.066)"/>
<rect x="209" y="267" width="7" height="8" fill="#7eff87" rx="0" transform="matrix(.999 .86073 -.51304 .55897 243.238 -14.325)"/>
<rect x="1037" y="568" width="12" height="27" fill="#f7535e" rx="0" transform="matrix(-.50656 .58242 -.99351 -.83179 2412.624 641.625)"/>
<rect x="1925" y="683" width="8" height="20" fill="#f7535e" rx="0" transform="matrix(-.37607 .86721 -.936 -.50069 3418.137 -733.975)"/>
<rect x="1721" y="619" width="11" height="11" fill="#f7535e" rx="0" transform="matrix(-.76377 .43053 -.68482 -.92327 3573.727 793.373)"/>
<rect x="850" y="1342" width="9" height="14" fill="#FFAD5A" rx="0" transform="matrix(.87711 .6297 -.5049 .77762 1042.544 -267.93)"/>
<rect x="387" y="1226" width="13" height="35" fill="#d3ed90" rx="0" transform="matrix(-.98256 .01772 -.1376 -1.01527 882.437 2568.402)"/>
<rect x="1768" y="353" width="9" height="16" fill="#2a80f0" rx="0" transform="matrix(1.0092 .1051 .08749 1 0 0)"/>
<rect x="368" y="576" width="9" height="13" fill="#7eff87" rx="0" transform="matrix(-.08904 1.0094 -.96849 -.25167 885.175 459.91)"/>
<rect x="230" y="1078" width="13" height="23" fill="#d3ed90" rx="0" transform="matrix(.19293 .96886 -1.09483 -.3148 1752.627 1249.312)"/>
<rect x="1629" y="1140" width="10" height="15" fill="#FFAD5A" rx="0" transform="matrix(-.67344 .37474 -.91413 -.97624 4286.92 2154.967)"/>
<rect x="855" y="487" width="10" height="11" fill="#f7535e" rx="0" transform="matrix(-.1555 .8215 -1.1043 -.59685 1759.403 231.603)"/>
<rect x="909" y="924" width="12" height="25" fill="#2a80f0" rx="0" transform="matrix(-.14405 .9894 -.97746 -.22842 2155.46 83.775)"/>
<rect x="1261" y="28" width="9" height="24" fill="#f7535e" rx="0" transform="matrix(.94 .31072 -.32533 .9563 67.705 -258.457)"/>
<rect x="80" y="777" width="8" height="11" fill="#d3ed90" rx="0" transform="matrix(-.18677 .87632 -1.02892 -.52654 1031.579 1138.765)"/>
<rect x="1598" y="690" width="7" height="9" fill="#FFAD5A" rx="0" transform="matrix(.10506 1.00598 -1.00324 -.08801 2178.195 -630.384)"/>
<rect x="1206" y="776" width="11" height="29" fill="#7eff87" rx="0" transform="matrix(-.14022 .9573 -.99632 -.32963 2203.27 83.178)"/>
<rect x="1326" y="657" width="13" height="35" fill="#f7535e" rx="0" transform="matrix(.74425 .80059 -.68825 .60328 949.958 -892.373)"/>
<rect x="1433" y="75" width="10" height="24" fill="#7eff87" rx="0" transform="matrix(-1.03013 .39676 -.09359 -.9347 2950.878 -655.778)"/>
<rect x="1871" y="938" width="9" height="15" fill="#2a80f0" rx="0" transform="matrix(1.00208 .25886 -.1233 .96607 232.795 -420.674)"/>
<rect x="482" y="364" width="9" height="16" fill="#2a80f0" rx="0" transform="matrix(-.67982 .78143 -.7292 -.63279 1099.7 176.1)"/>
<rect x="1744" y="473" width="13" height="16" fill="#f7535e" rx="0" transform="matrix(1.0241 .769 -.34542 .7171 328.021 -641.27)"/>
<rect x="1649" y="484" width="8" height="10" fill="#7eff87" rx="0" transform="matrix(.8156 .61905 -.57144 .79235 549.509 -748.017)"/>
<rect x="1947" y="1113" width="11" height="12" fill="#FFAD5A" rx="0" transform="matrix(-.80665 .3439 -.69155 -.94487 4656.14 1710.051)"/>
<rect x="1255" y="65" width="7" height="13" fill="#d3ed90" rx="0" transform="matrix(.92259 .75636 -.4312 .7304 153.432 -523.69)"/>
<rect x="1601" y="1104" width="8" height="23" fill="#FFAD5A" rx="0" transform="matrix(.2468 1.00046 -.99524 .01746 2546.788 -453.666)"/>
<rect x="162" y="115" width="7" height="19" fill="#f7535e" rx="0" transform="matrix(-1.01084 .13936 .01707 -.99163 318.496 216.22)"/>
<rect x="1089" y="646" width="11" height="11" fill="#2a80f0" rx="0" transform="matrix(-.14428 .92733 -1.02008 -.37466 2071.815 -100.26)"/>
<rect x="1724" y="824" width="13" height="17" fill="#2a80f0" rx="0" transform="matrix(.41124 .95481 -.90573 .32877 1908.907 -1336.705)"/>
<rect x="457" y="594" width="12" height="31" fill="#f7535e" rx="0" transform="matrix(.87711 .6297 -.5049 .77762 479.969 -172.18)"/>
<rect x="1614" y="805" width="13" height="31" fill="#2a80f0" rx="0" transform="matrix(-.47893 .96828 -.90443 -.25945 3026.68 -649.042)"/>
<rect x="1522" y="975" width="8" height="23" fill="#FFAD5A" rx="0" transform="matrix(.85662 .91853 -.63322 .4884 1094.575 -459.4)"/>
<rect x="997" y="471" width="12" height="29" fill="#d3ed90" rx="0" transform="matrix(1.00692 .25882 -.10583 .96593 121.337 -243.052)"/>
<rect x="392" y="422" width="13" height="18" fill="#FFAD5A" rx="0" transform="matrix(.91767 .17581 -.4835 .99708 182.925 -131.92)"/>
<rect x="1168" y="114" width="13" height="38" fill="#d3ed90" rx="0" transform="matrix(-.24223 .97983 -.96019 -.2443 1544.82 -820.255)"/>
<rect x="991" y="299" width="13" height="22" fill="#FFAD5A" rx="0" transform="matrix(.91558 .84805 -.53808 .59381 352.806 -452.73)"/>
<rect x="510" y="408" width="13" height="27" fill="#d3ed90" rx="0" transform="matrix(-.96935 -.01807 -.18767 -1.03512 1066.93 1005.53)"/>
<rect x="229" y="84" width="13" height="14" fill="#f7535e" rx="0" transform="matrix(-.17335 .85658 -1.04605 -.59978 397.33 15.855)"/>
<rect x="1257" y="79" width="10" height="10" fill="#f7535e" rx="0" transform="matrix(.92651 .96056 -.62855 .42767 277.92 -754.1)"/>
<rect x="237" y="783" width="7" height="15" fill="#2a80f0" rx="0" transform="matrix(-.24327 .94027 -.97499 -.34223 1125.598 843.296)"/>
<rect x="626" y="59" width="10" height="20" fill="#7eff87" rx="0" transform="matrix(-.67962 .76038 -.72435 -.66099 1086.624 -287.713)"/>
<rect x="1831" y="304" width="13" height="21" fill="#f7535e" rx="0" transform="matrix(-1.02708 .19375 .12263 -.99677 3687.522 -52.037)"/>
<rect x="435" y="441" width="9" height="21" fill="#d3ed90" rx="0" transform="matrix(-.66598 .66424 -.73936 -.76412 1047.824 574.177)"/>
<rect x="770" y="493" width="10" height="20" fill="#f7535e" rx="0" transform="matrix(-.11145 .99034 -.98606 -.2105 1452.17 -281.379)"/>
<rect x="1941" y="1135" width="13" height="15" fill="#f7535e" rx="0" transform="matrix(.88496 .48957 -.44608 .88322 886.878 -1093.722)"/>
<rect x="1368" y="1372" width="13" height="25" fill="#2a80f0" rx="0" transform="matrix(.66372 .93874 -.7971 .37928 1819.56 -213.208)"/>
<rect x="501" y="865" width="10" height="20" fill="#d3ed90" rx="0" transform="matrix(.06233 1.01527 -.98605 -.01772 1533.17 287.557)"/>
<rect x="972" y="549" width="10" height="18" fill="#f7535e" rx="0" transform="matrix(-.12235 .97874 -.99571 -.20804 1683.178 -248.03)"/>
<rect x="1237" y="467" width="12" height="16" fill="#2a80f0" rx="0" transform="matrix(.9159 .50696 -.3202 .91458 151.65 -209.557)"/>
<rect x="465" y="1047" width="10" height="15" fill="#7eff87" rx="0" transform="matrix(-1.01072 -.07131 -.43161 -1.01985 1731.19 2263.352)"/>
<rect x="112" y="443" width="8" height="10" fill="#f7535e" rx="0" transform="matrix(.94476 .79307 -.46818 .66546 292.03 88.959)"/>
<rect x="303" y="181" width="12" height="20" fill="#7eff87" rx="0" transform="matrix(.14618 .99513 -1.02026 -.1046 510.376 -107.308)"/>
<rect x="801" y="102" width="10" height="25" fill="#f7535e" rx="0" transform="matrix(-.9034 .32636 -.4404 -.94783 1593.522 16.339)"/>
<rect x="1512" y="707" width="11" height="32" fill="#2a80f0" rx="0" transform="matrix(.73824 .78993 -.68915 .61716 968.013 -815.823)"/>
<rect x="86" y="146" width="9" height="16" fill="#FFAD5A" rx="0" transform="matrix(1.07427 .2598 .16022 .96962 24.358 -10.916)"/>
<rect x="1462" y="1219" width="11" height="23" fill="#2a80f0" rx="0" transform="matrix(-.87714 .2646 -.50574 -.9875 3457.854 2369.25)"/>
<rect x="1777" y="418" width="11" height="26" fill="#d3ed90" rx="0" transform="matrix(-.7263 .36173 -.769 -.99384 3555.414 828.329)"/>
<rect x="1714" y="1031" width="12" height="17" fill="#d3ed90" rx="0" transform="matrix(.7736 .91091 -.70363 .46413 1343.39 -644.138)"/>
<rect x="101" y="1240" width="13" height="15" fill="#2a80f0" rx="0" transform="matrix(.67431 .89155 -.77806 .45427 1271.606 588.714)"/>
<rect x="126" y="473" width="11" height="14" fill="#f7535e" rx="0" transform="matrix(1.01721 .3439 -.11303 .94487 212.508 -32.582)"/>
<rect x="143" y="517" width="11" height="26" fill="#2a80f0" rx="0" transform="matrix(-.3578 .90374 -.932 -.44079 686.068 645.018)"/>
<rect x="1379" y="75" width="11" height="32" fill="#FFAD5A" rx="0" transform="matrix(-.61208 .87939 -.78377 -.50771 2297.9 -1324.432)"/>
<rect x="705" y="1132" width="11" height="13" fill="#7eff87" rx="0" transform="matrix(-.43934 .9582 -.90087 -.31134 2029.948 724.92)"/>
<rect x="1474" y="1110" width="11" height="27" fill="#d3ed90" rx="0" transform="matrix(.9965 -.01755 -.1047 1.00536 105.916 -135.555)"/>
<rect x="1067" y="539" width="12" height="17" fill="#2a80f0" rx="0" transform="matrix(-.47274 .93372 -.88951 -.35842 2011.687 -276.877)"/>
</svg>